<svg width="100%" height="100%" viewBox="0 0 36 36" fill="none" xmlns="http://www.w3.org/2000/svg">
<path d="M35.4316 16.8184L16.9844 0.807617C16.8428 0.685547 16.6621 0.617188 16.4717 0.617188H12.1504C11.7891 0.617188 11.623 1.06641 11.8965 1.30078L28.9961 16.1445H0.421875C0.207031 16.1445 0.03125 16.3203 0.03125 16.5352V19.4648C0.03125 19.6797 0.207031 19.8555 0.421875 19.8555H28.9912L11.8916 34.6992C11.6182 34.9385 11.7842 35.3828 12.1455 35.3828H16.6133C16.7061 35.3828 16.7988 35.3486 16.8672 35.2852L35.4316 19.1816C35.6007 19.0347 35.7362 18.8531 35.8291 18.6493C35.922 18.4454 35.97 18.224 35.97 18C35.97 17.776 35.922 17.5546 35.8291 17.3507C35.7362 17.1469 35.6007 16.9653 35.4316 16.8184Z" fill="#504C4A"/>
</svg>
